<?xml version="1.0" encoding="UTF-8"?><svg xmlns="http://www.w3.org/2000/svg" viewBox="0 0 1073.76 1078.7"><defs><style>.cls-1,.cls-2,.cls-3{fill:none;stroke:#c6d42b;}.cls-1,.cls-3{stroke-width:15px;}.cls-2{stroke-width:10px;}.cls-2,.cls-3{stroke-linecap:round;stroke-linejoin:round;}.cls-4{fill:#c6d42b;}</style></defs><g id="Camada_2"><polyline class="cls-3" points="371.8 270.79 600.66 270.79 605.8 276.79 605.8 323.07 569.8 353.07 569.8 557.07 694.95 791.07 694.95 816.79 275.8 816.79"/><polyline class="cls-1" points="598.95 270.79 370.09 270.79 364.95 276.79 364.95 323.07 400.95 353.07 400.95 557.07 275.8 791.07 275.8 816.79 694.95 816.79"/><rect class="cls-3" x="450.23" y="270.79" width="70.29" height="42.43"/></g><g id="Camada_3"><polyline class="cls-3" points="633.71 281.03 689.43 281.03 781.36 372.96 781.36 517.6 746.32 552.64 781.25 587.57 781.25 739.6 727.41 793.44"/></g><g id="Camada_4"><polyline class="cls-2" points="762.14 384.53 762.14 506.46 722.55 554.42 762.13 595.65 762.56 724.32"/><rect class="cls-4" x="631.71" y="297" width="51.86" height="4.86" rx="2" ry="2"/><path class="cls-4" d="M681.57,299v.86h-47.86v-.86h47.86M681.57,295h-47.86c-2.21,0-4,1.79-4,4v.86c0,2.21,1.79,4,4,4h47.86c2.21,0,4-1.79,4-4v-.86c0-2.21-1.79-4-4-4h0Z"/><rect class="cls-4" x="302.38" y="790.24" width="354.95" height="6.57" rx="2" ry="2"/><path class="cls-4" d="M655.33,792.24v2.57h-350.95v-2.57h350.95M655.33,788.24h-350.95c-2.21,0-4,1.79-4,4v2.57c0,2.21,1.79,4,4,4h350.95c2.21,0,4-1.79,4-4v-2.57c0-2.21-1.79-4-4-4h0Z"/><rect class="cls-4" x="419.15" y="354.18" width="5.14" height="200.24" rx="2" ry="2"/><path class="cls-4" d="M422.29,356.18v196.24h-1.14v-196.24h1.14M422.29,352.18h-1.14c-2.21,0-4,1.79-4,4v196.24c0,2.21,1.79,4,4,4h1.14c2.21,0,4-1.79,4-4v-196.24c0-2.21-1.79-4-4-4h0Z"/><path class="cls-4" d="M670.8,790.92c-.71,0-1.4-.38-1.76-1.05l-120.79-223.11c-.25-.47-.31-1.01-.16-1.52s.5-.94.96-1.19l1.65-.89c.3-.16.63-.24.95-.24.71,0,1.4.38,1.76,1.05l120.79,223.11c.25.47.31,1.01.16,1.52s-.5.94-.96,1.19l-1.65.89c-.3.16-.63.24-.95.24Z"/><path class="cls-4" d="M551.66,564.91l120.79,223.11-1.65.89-120.79-223.11,1.65-.89M551.65,560.91c-.64,0-1.3.16-1.9.48l-1.65.89c-.93.51-1.63,1.36-1.93,2.38-.3,1.02-.19,2.11.32,3.05l120.79,223.11c.51.93,1.36,1.63,2.38,1.93.37.11.76.17,1.14.17.66,0,1.31-.16,1.9-.48l1.65-.89c1.94-1.05,2.66-3.48,1.61-5.42l-120.79-223.11c-.72-1.34-2.1-2.1-3.52-2.1h0Z"/><path class="cls-4" d="M716.17,779.01c-.51,0-1.02-.19-1.41-.58l-.46-.46c-.38-.38-.59-.88-.59-1.42s.21-1.04.59-1.42l28.26-28.26c.38-.38.88-.59,1.41-.59s1.04.21,1.41.59l.46.46c.38.38.59.88.59,1.41s-.21,1.04-.59,1.41l-28.26,28.26c-.39.39-.9.59-1.41.59Z"/><path class="cls-4" d="M743.96,748.29l.46.46-28.26,28.26-.46-.46,28.26-28.26M743.96,744.29c-1.06,0-2.08.42-2.83,1.17l-28.26,28.26c-1.56,1.56-1.56,4.09,0,5.66l.46.46c.75.75,1.77,1.17,2.83,1.17,1.06,0,2.08-.42,2.83-1.17l28.26-28.26c1.56-1.56,1.56-4.09,0-5.66l-.46-.46c-.75-.75-1.77-1.17-2.83-1.17h0Z"/></g></svg>